<svg xmlns="http://www.w3.org/2000/svg" viewBox="0 0 190.16 24.61"><defs><style>.cls-1{fill:#000005}</style></defs><title>logo</title><g id="Слой_2" data-name="Слой 2"><g id="Layer_1" data-name="Layer 1"><path d="M40.93,0a11.41,11.41,0,0,0-8.7,4,9.64,9.64,0,0,0-12.45-.39,11.42,11.42,0,1,0,2.28,12L20.39,15A9.64,9.64,0,0,1,1.84,12.33h21v-.9a11.37,11.37,0,0,0-2-6.4,7.86,7.86,0,0,1,10.27.46A11.42,11.42,0,1,0,40.93,0ZM1.84,10.54a9.64,9.64,0,0,1,19.2,0Zm39.1,10.54a9.64,9.64,0,1,1,9.64-9.64A9.65,9.65,0,0,1,40.93,21.08Z" class="cls-1"/></g></g></svg>